<?xml version="1.0" standalone="no"?>
<!DOCTYPE svg PUBLIC "-//W3C//DTD SVG 20010904//EN"
 "http://www.w3.org/TR/2001/REC-SVG-20010904/DTD/svg10.dtd">
<svg version="1.0" xmlns="http://www.w3.org/2000/svg"
 width="1660.000000pt" height="1660.000000pt" viewBox="0 0 1660.000000 1660.000000"
 preserveAspectRatio="xMidYMid meet">
<metadata>
Created by potrace 1.16, written by Peter Selinger 2001-2019
</metadata>
<g transform="translate(0.000000,1660.000000) scale(0.100000,-0.100000)"
fill="#000000" stroke="none">
<path d="M4375 15144 c-364 -27 -454 -39 -549 -75 -29 -10 -65 -33 -81 -50
-36 -37 -36 -26 -4 -471 26 -363 30 -343 -61 -333 -30 3 -163 8 -295 12 -229
6 -243 5 -287 -15 -30 -13 -52 -31 -63 -51 -15 -30 -8 -89 189 -1474 113 -793
251 -1759 306 -2147 281 -1977 322 -2254 335 -2281 34 -64 119 -103 250 -113
44 -4 589 -33 1210 -66 622 -33 1472 -78 1890 -101 1062 -57 1036 -57 2260 7
567 29 1460 76 1985 103 525 28 995 55 1043 60 136 16 217 61 241 136 3 12 38
243 76 515 91 640 545 3829 661 4644 49 346 89 647 89 668 0 54 -14 76 -63 99
-35 16 -66 19 -197 19 -85 0 -219 -5 -297 -10 -78 -5 -150 -7 -159 -3 -15 6
-16 20 -10 137 3 72 13 212 21 311 8 99 15 213 15 252 0 65 -3 76 -27 103 -76
83 -421 130 -963 130 -1221 0 -2643 -277 -3423 -666 -82 -41 -159 -74 -170
-74 -12 0 -83 31 -157 69 -625 320 -1670 560 -2830 651 -134 11 -839 21 -935
14z m695 -204 c1095 -53 2238 -296 2875 -612 142 -71 161 -88 181 -155 15 -52
16 -286 12 -2950 -3 -2152 -7 -2896 -16 -2905 -8 -8 -41 0 -129 35 -576 223
-1200 361 -1888 418 -191 16 -784 16 -1025 1 -218 -15 -522 -40 -566 -48 -48
-9 -60 12 -68 113 -3 48 -15 210 -26 358 -11 149 -47 644 -80 1100 -33 457
-64 889 -70 960 -6 72 -21 285 -35 475 -14 190 -54 746 -90 1235 -36 490 -74
1016 -85 1170 -12 154 -27 368 -35 475 -8 107 -15 216 -15 242 0 46 1 47 38
57 124 33 650 48 1022 31z m7145 0 c239 -13 345 -26 364 -44 12 -13 12 -38 2
-173 -6 -87 -29 -403 -51 -703 -22 -300 -49 -666 -60 -815 -11 -148 -27 -364
-35 -480 -45 -612 -58 -796 -95 -1300 -22 -302 -49 -671 -60 -820 -11 -148
-26 -364 -35 -480 -23 -312 -52 -714 -75 -1030 -24 -336 -27 -362 -45 -369 -8
-3 -52 -1 -97 4 -511 58 -1146 72 -1598 34 -623 -51 -1264 -194 -1793 -400
-77 -30 -145 -54 -152 -54 -7 0 -15 10 -19 23 -3 12 -6 1327 -6 2922 0 2802 1
2901 19 2941 24 53 51 73 185 138 813 395 2406 667 3551 606z m-8546 -930 c53
-5 89 -13 99 -23 12 -13 22 -103 48 -469 18 -249 42 -577 53 -728 12 -151 57
-768 101 -1371 44 -603 89 -1220 100 -1370 11 -151 38 -524 60 -829 29 -400
44 -564 55 -588 21 -46 61 -66 185 -92 109 -23 110 -23 277 -7 386 38 475 42
943 42 391 0 504 -3 640 -18 419 -46 820 -124 1185 -232 241 -71 445 -147 445
-167 0 -11 147 -17 -1351 62 -728 38 -1544 81 -1814 95 -269 14 -507 30 -527
35 -28 8 -38 17 -42 38 -3 15 -49 331 -101 702 -152 1069 -278 1959 -496 3487
-172 1210 -200 1425 -189 1438 12 15 30 16 129 10 64 -4 154 -10 200 -15z
m9585 7 c16 -12 12 -53 -83 -717 -55 -388 -224 -1578 -376 -2645 -152 -1067
-286 -2016 -300 -2109 -15 -104 -29 -175 -38 -183 -19 -20 -18 -20 -662 -53
-313 -16 -1127 -59 -1809 -95 -681 -36 -1241 -64 -1243 -61 -12 12 16 27 131
70 436 160 1007 285 1546 338 90 9 288 13 590 13 448 0 564 -5 943 -42 178
-17 185 -16 371 29 52 13 92 54 100 104 3 21 19 224 36 449 16 226 39 535 50
688 11 152 29 400 40 550 11 149 27 367 35 482 9 116 24 332 35 480 11 149 29
392 40 540 20 272 43 594 80 1098 11 149 26 362 34 472 8 110 20 274 27 365 6
91 16 175 20 187 9 25 33 30 209 42 175 12 205 12 224 -2z"/>
<path d="M5171 13780 c-210 -11 -431 -35 -500 -56 -56 -16 -96 -47 -106 -82
-5 -17 1 -30 27 -56 48 -48 96 -53 298 -32 284 29 750 41 1140 27 562 -19 869
-66 1257 -193 202 -66 318 -58 347 25 11 31 -10 69 -56 97 -38 23 -237 88
-398 130 -241 62 -460 100 -740 125 -198 19 -1009 28 -1269 15z"/>
<path d="M5500 11880 c-58 -5 -181 -19 -275 -30 -298 -37 -354 -53 -398 -111
-17 -24 -18 -30 -6 -55 8 -16 30 -37 49 -47 43 -23 168 -19 395 12 459 62 873
52 1603 -39 133 -17 302 -41 375 -55 201 -36 222 -38 277 -25 59 14 105 59 94
94 -12 39 -47 66 -111 86 -128 39 -583 105 -1048 151 -237 23 -776 34 -955 19z"/>
<path d="M5405 9929 c-297 -23 -504 -91 -548 -180 -31 -65 12 -111 108 -117
56 -4 76 0 152 31 111 45 167 55 376 67 497 28 1266 -65 1745 -212 217 -66
255 -73 311 -58 49 13 91 49 91 79 0 32 -45 76 -107 104 -183 82 -630 184
-1033 237 -365 48 -841 69 -1095 49z"/>
<path d="M10385 13779 c-333 -15 -598 -51 -885 -120 -174 -42 -404 -111 -455
-136 -80 -41 -107 -99 -62 -141 59 -55 123 -55 313 3 450 138 708 177 1270
197 380 13 864 1 1151 -29 145 -14 180 -15 220 -4 128 34 124 136 -7 175 -71
21 -289 45 -500 55 -222 10 -822 11 -1045 0z"/>
<path d="M10430 11884 c-19 -2 -98 -9 -175 -15 -296 -23 -718 -74 -950 -115
-235 -41 -281 -58 -315 -117 -27 -48 22 -99 110 -112 32 -5 98 3 220 24 207
36 557 82 870 112 172 17 296 22 525 23 304 1 433 -7 695 -45 148 -21 265 -24
304 -9 93 35 86 122 -14 164 -40 16 -235 47 -450 72 -136 15 -729 28 -820 18z"/>
<path d="M10621 9930 c-534 -32 -1072 -124 -1443 -246 -154 -52 -218 -93 -218
-143 0 -54 85 -99 167 -87 24 3 108 26 186 51 492 156 1274 254 1787 225 198
-11 291 -28 387 -69 92 -40 173 -43 224 -8 24 16 35 31 37 54 9 91 -186 184
-448 213 -133 15 -507 20 -679 10z"/>
<path d="M9705 6814 c-184 -25 -354 -138 -591 -394 -116 -126 -368 -418 -412
-479 -66 -90 -21 -161 100 -161 87 0 114 23 330 275 381 445 595 616 645 515
32 -63 3 -205 -68 -338 -42 -80 -179 -261 -272 -361 -90 -97 -112 -174 -64
-219 28 -26 92 -30 125 -7 12 9 78 80 147 158 302 341 389 424 522 499 40 23
69 31 127 35 90 7 119 -7 137 -66 14 -46 -5 -114 -49 -180 -63 -93 -280 -307
-491 -486 -130 -110 -161 -183 -102 -239 26 -25 36 -28 75 -24 52 6 59 11 203
143 422 388 542 480 696 534 143 50 212 39 230 -39 17 -73 -59 -262 -180 -445
-71 -107 -273 -391 -428 -600 -271 -367 -557 -653 -940 -941 -369 -278 -563
-364 -821 -364 -240 0 -483 89 -864 317 -236 141 -348 201 -485 258 -272 114
-517 150 -754 109 -51 -9 -96 -13 -99 -9 -4 4 -8 138 -9 298 0 161 -8 417 -17
570 -11 192 -13 284 -6 297 6 11 30 33 55 50 24 17 62 52 84 78 91 108 294
265 442 342 338 176 624 140 1139 -143 265 -145 460 -244 561 -283 52 -20 207
-64 344 -99 138 -34 275 -74 306 -88 154 -74 168 -185 38 -322 -169 -179 -433
-246 -699 -179 -120 30 -250 82 -480 189 -367 171 -390 179 -479 163 -84 -15
-120 -87 -68 -136 38 -36 574 -288 750 -353 115 -42 261 -77 376 -90 360 -39
789 148 923 402 19 35 23 59 23 124 0 70 -5 89 -33 146 -50 105 -122 164 -273
228 -68 29 -178 68 -244 87 -384 113 -447 138 -715 289 -364 204 -596 303
-820 351 -107 23 -362 26 -465 5 -218 -43 -462 -165 -671 -336 -71 -57 -87
-56 -95 10 -8 66 -15 81 -52 104 -96 59 -457 54 -632 -8 -153 -54 -242 -159
-282 -332 -20 -91 -22 -431 -3 -694 7 -93 14 -401 16 -683 3 -579 -4 -536 83
-569 37 -15 75 -18 201 -17 138 1 165 4 245 28 49 15 117 41 150 59 78 41 172
135 213 214 22 43 40 64 55 67 12 3 65 14 117 26 311 71 541 8 1023 -279 246
-146 328 -190 470 -251 231 -99 418 -140 637 -140 222 0 367 34 575 134 244
118 649 423 948 715 215 210 361 384 608 726 303 418 395 560 462 711 127 291
40 495 -232 537 -69 10 -92 9 -277 -20 l-32 -5 -3 89 c-4 81 -7 93 -33 128
-78 102 -264 121 -473 49 -40 -14 -77 -23 -82 -20 -4 3 -11 32 -14 64 -11 103
-51 174 -127 221 -69 44 -165 65 -245 55z m-3625 -974 c13 -8 15 -50 16 -267
0 -142 7 -343 14 -448 18 -252 19 -779 2 -863 -27 -134 -50 -188 -102 -245
-59 -64 -127 -97 -216 -105 l-61 -4 -6 413 c-3 228 -13 542 -22 699 -19 323
-15 566 9 646 32 104 91 155 197 173 74 12 151 13 169 1z"/>
<path d="M4130 1765 l0 -475 130 0 130 0 0 29 0 30 50 -34 c141 -95 313 -30
382 144 18 46 22 76 22 171 1 99 -2 122 -22 165 -46 99 -114 144 -218 145 -73
0 -121 -18 -174 -66 l-40 -36 0 201 0 201 -130 0 -130 0 0 -475z m399 -30 c67
-34 69 -190 3 -248 -14 -13 -32 -17 -58 -15 -55 4 -84 50 -84 132 0 112 63
171 139 131z"/>
<path d="M6647 2233 c-4 -3 -7 -217 -7 -475 l0 -468 135 0 135 0 2 163 3 162
70 -162 70 -163 148 0 148 0 -90 173 -90 173 84 142 c47 78 85 144 85 147 0 3
-66 5 -148 5 l-147 0 -65 -151 -65 -151 -3 306 -2 306 -128 0 c-71 0 -132 -3
-135 -7z"/>
<path d="M11370 1765 l0 -475 130 0 130 0 0 29 0 30 50 -34 c141 -95 313 -30
382 144 18 46 22 76 22 171 1 99 -2 122 -22 165 -46 99 -114 144 -218 145 -73
0 -121 -18 -174 -66 l-40 -36 0 201 0 201 -130 0 -130 0 0 -475z m399 -30 c67
-34 69 -190 3 -248 -14 -13 -32 -17 -58 -15 -55 4 -84 50 -84 132 0 112 63
171 139 131z"/>
<path d="M8854 2211 c-11 -5 -33 -23 -47 -41 -80 -95 31 -225 163 -191 82 22
121 86 97 158 -18 53 -55 77 -130 80 -34 2 -71 -1 -83 -6z"/>
<path d="M11012 2203 c-79 -39 -84 -156 -8 -202 49 -30 100 -36 151 -16 61 23
85 56 85 115 0 52 -27 92 -75 110 -39 15 -116 12 -153 -7z"/>
<path d="M13630 2198 c-65 -44 -72 -141 -13 -188 74 -58 200 -43 238 30 26 50
19 95 -19 137 -32 35 -38 37 -102 41 -60 3 -74 1 -104 -20z"/>
<path d="M1140 2080 l0 -110 125 0 125 0 0 -340 0 -340 135 0 135 0 0 340 0
340 125 0 125 0 0 110 0 110 -385 0 -385 0 0 -110z"/>
<path d="M7820 1741 l0 -451 228 0 c172 0 242 4 287 15 210 55 325 216 325
453 0 225 -109 365 -320 412 -30 6 -160 14 -287 17 l-233 6 0 -452z m445 203
c22 -11 53 -40 70 -63 25 -36 30 -54 34 -118 8 -171 -67 -262 -216 -263 l-63
0 0 236 0 236 68 -4 c42 -2 82 -11 107 -24z"/>
<path d="M3750 2086 l-115 -32 -3 -62 -3 -62 -49 0 -50 0 0 -95 0 -95 49 0 49
0 4 -152 c5 -170 14 -202 69 -256 47 -46 123 -66 214 -58 121 10 115 4 115
111 l0 93 -45 -6 c-35 -3 -50 0 -65 13 -18 16 -20 31 -20 137 l0 118 65 0 65
0 0 95 0 95 -65 0 -65 0 0 95 c0 84 -2 95 -17 94 -10 0 -70 -15 -133 -33z"/>
<path d="M10010 2087 l-115 -32 -3 -63 -3 -62 -49 0 -50 0 0 -95 0 -95 50 0
50 0 0 -133 c0 -89 5 -150 15 -183 31 -105 131 -162 264 -151 37 3 78 10 94
16 27 10 27 12 27 99 l0 89 -48 -5 c-74 -7 -85 12 -90 153 l-5 115 72 0 71 0
0 95 0 95 -70 0 -70 0 0 95 c0 70 -3 95 -12 94 -7 0 -65 -15 -128 -32z"/>
<path d="M13210 2086 l-115 -32 -3 -62 -3 -61 -47 -3 -47 -3 0 -90 0 -90 46
-3 47 -3 4 -147 c4 -109 9 -157 22 -187 42 -98 131 -143 261 -131 121 10 115
4 115 111 l0 92 -49 -5 c-72 -7 -81 12 -81 155 l0 113 65 0 65 0 0 95 0 95
-65 0 -65 0 0 95 c0 84 -2 95 -17 94 -10 0 -70 -15 -133 -33z"/>
<path d="M2200 1918 c-75 -29 -158 -114 -185 -188 -22 -63 -25 -179 -6 -247
27 -98 128 -181 248 -203 72 -14 186 -9 268 12 l50 13 3 87 3 87 -46 -15 c-32
-11 -72 -15 -136 -12 -89 3 -91 4 -122 38 l-31 35 199 5 200 5 -2 94 c-2 83
-6 102 -33 157 -51 105 -141 154 -278 153 -53 0 -94 -7 -132 -21z"/>
<path d="M5185 1927 c-101 -34 -163 -84 -206 -167 -21 -39 -24 -59 -24 -150 0
-123 17 -172 85 -240 130 -130 419 -131 549 -1 54 54 79 106 91 190 22 159
-43 283 -183 347 -53 24 -76 29 -167 31 -67 2 -119 -2 -145 -10z m198 -205
c27 -28 39 -91 27 -153 -13 -66 -42 -99 -87 -99 -72 0 -103 43 -103 142 1 69
15 104 51 125 30 17 87 10 112 -15z"/>
<path d="M5999 1918 c-36 -13 -84 -38 -106 -56 -51 -40 -99 -132 -108 -205 -8
-62 9 -166 35 -217 62 -121 232 -189 405 -162 182 28 283 138 293 317 7 143
-51 246 -176 307 -60 30 -76 33 -172 36 -89 2 -115 -1 -171 -20z m200 -182
c36 -19 51 -55 51 -122 0 -64 -20 -118 -48 -133 -33 -18 -90 -13 -111 8 -43
43 -51 164 -15 218 26 41 76 53 123 29z"/>
<path d="M9363 1926 c-105 -33 -163 -102 -163 -195 0 -63 22 -114 61 -142 16
-11 66 -35 111 -52 88 -35 110 -55 89 -81 -20 -24 -113 -20 -193 8 l-68 23 0
-93 c0 -70 3 -93 14 -97 37 -14 185 -29 240 -24 204 19 317 162 244 307 -26
50 -66 77 -166 111 -70 23 -92 48 -65 74 13 14 27 16 71 10 30 -4 72 -13 94
-21 22 -8 42 -14 44 -14 2 0 4 40 4 89 l0 89 -50 11 c-68 15 -215 13 -267 -3z"/>
<path d="M10750 1918 c-27 -14 -55 -39 -70 -62 l-25 -39 -3 57 -3 56 -129 0
-130 0 0 -320 0 -320 129 0 129 0 4 168 c4 177 14 218 58 242 26 14 96 17 133
7 l27 -7 0 114 c0 95 -3 115 -16 120 -29 11 -59 6 -104 -16z"/>
<path d="M14193 1921 c-146 -50 -223 -159 -223 -316 0 -176 103 -294 284 -326
175 -30 341 34 408 157 32 60 52 162 43 224 -7 50 -44 134 -72 165 -37 42 -94
77 -154 96 -80 25 -214 25 -286 0z m208 -197 c51 -46 49 -185 -3 -234 -24 -22
-77 -27 -109 -10 -44 24 -64 133 -38 209 20 58 103 77 150 35z"/>
<path d="M15203 1919 c-24 -12 -56 -37 -73 -55 l-30 -35 0 51 0 50 -135 0
-135 0 0 -320 0 -320 135 0 135 0 0 204 c0 183 2 206 18 227 25 30 75 30 105
0 21 -21 22 -31 26 -226 l3 -205 130 0 130 0 -4 253 c-3 239 -4 254 -25 294
-37 69 -81 95 -166 100 -58 3 -80 -1 -114 -18z"/>
<path d="M2710 1925 c0 -3 43 -73 95 -156 52 -82 95 -154 95 -160 0 -5 -45
-77 -100 -159 -55 -82 -100 -152 -100 -155 0 -3 67 -5 149 -5 l149 0 30 64
c16 35 36 80 43 100 7 20 15 36 19 36 3 0 22 -40 43 -88 20 -48 41 -93 45
-100 7 -9 45 -12 159 -10 l151 3 -100 164 c-54 90 -97 169 -95 175 3 7 41 63
84 126 44 63 88 127 98 143 l17 27 -145 0 -145 0 -44 -105 c-38 -93 -58 -125
-58 -95 0 6 -20 53 -44 105 l-45 95 -150 0 c-83 0 -151 -2 -151 -5z"/>
<path d="M8797 1923 c-4 -3 -7 -147 -7 -320 l0 -313 135 0 135 0 0 320 0 320
-128 0 c-71 0 -132 -3 -135 -7z"/>
<path d="M10960 1610 l0 -320 135 0 135 0 0 320 0 320 -135 0 -135 0 0 -320z"/>
<path d="M12212 1678 c3 -239 4 -255 25 -294 43 -81 123 -122 212 -110 53 7
121 45 150 83 l20 28 1 -47 0 -48 135 0 135 0 0 320 0 320 -135 0 -135 0 0
-204 c0 -191 -1 -205 -21 -230 -26 -33 -77 -36 -105 -5 -17 19 -19 41 -22 230
l-4 209 -129 0 -130 0 3 -252z"/>
<path d="M13590 1610 l0 -320 135 0 135 0 -2 318 -3 317 -132 3 -133 3 0 -321z"/>
</g>
</svg>
